<?xml version="1.0" encoding="UTF-8"?>
<svg width="809px" height="239px" viewBox="0 0 809 239" version="1.1" xmlns="http://www.w3.org/2000/svg" xmlns:xlink="http://www.w3.org/1999/xlink">
    <!-- Generator: Sketch 49.3 (51167) - http://www.bohemiancoding.com/sketch -->
    <title>Group</title>
    <desc>Created with Sketch.</desc>
    <defs></defs>
    <g id="Page-1" stroke="none" stroke-width="1" fill="none" fill-rule="evenodd">
        <g id="Artboard" transform="translate(-77.000000, -294.000000)" fill="#FFFFFF" fill-rule="nonzero">
            <g id="Group" transform="translate(481.487500, 413.560300) scale(1, -1) translate(-481.487500, -413.560300) translate(76.987500, 294.560300)">
                <polygon id="Shape" points="131.265 170.4 106.954 170.4 71.853 79.303 93.843 79.303 99.579 94.734 132.745 94.734 126.741 111.809 104.905 111.809 119.11 151.006 144.378 79.303 166.366 79.303"></polygon>
                <polygon id="Shape" points="500.567 79.303 500.567 170.4 520.098 170.4 520.098 96.375 558.612 96.375 558.612 79.303"></polygon>
                <polygon id="Shape" points="613.132 79.303 613.132 170.4 632.663 170.4 632.663 96.375 671.179 96.375 671.179 79.303"></polygon>
                <path d="M392.401,154.074 C408.553,154.074 421.694,140.935 421.694,124.782 C421.694,108.631 408.553,95.49 392.401,95.49 C376.249,95.49 363.11,108.631 363.11,124.782 C363.11,140.936 376.249,154.074 392.401,154.074 Z M392.401,171.901 C366.378,171.901 345.282,150.805 345.282,124.782 C345.282,98.759 366.378,77.662 392.401,77.662 C418.424,77.662 439.52,98.759 439.52,124.782 C439.52,150.805 418.425,171.901 392.401,171.901 Z" id="Shape"></path>
                <path d="M760.964,154.074 C777.118,154.074 790.259,140.935 790.259,124.782 C790.259,108.631 777.118,95.49 760.964,95.49 C744.812,95.49 731.673,108.631 731.673,124.782 C731.673,140.936 744.812,154.074 760.964,154.074 Z M760.964,171.901 C734.943,171.901 713.845,150.805 713.845,124.782 C713.845,98.759 734.943,77.662 760.964,77.662 C786.987,77.662 808.085,98.759 808.085,124.782 C808.085,150.805 786.987,171.901 760.964,171.901 Z" id="Shape"></path>
                <path d="M265.665,170.4 L242.583,170.4 L239.272,170.4 L223.188,170.4 L223.188,79.302 L242.583,79.302 L242.583,110.652 L265.665,110.652 C281.856,110.652 294.981,124.337 294.981,140.526 C294.981,156.718 281.856,170.4 265.665,170.4 Z M265.665,128.481 L242.583,128.481 L242.583,152.572 L265.665,152.572 C272.001,152.572 277.153,146.861 277.153,140.526 C277.153,134.191 272.001,128.481 265.665,128.481 Z" id="Shape"></path>
                <path d="M206.442,51.655 C204.754,51.655 203.264,50.819 202.354,49.537 C202.354,49.537 197.979,44.546 195.62,42.184 C185.641,32.205 174.022,24.372 161.087,18.9 C147.7,13.237 133.476,10.366 118.806,10.366 C104.134,10.366 89.91,13.237 76.525,18.9 C63.589,24.372 51.97,32.205 41.992,42.184 C32.012,52.165 24.178,63.783 18.707,76.718 C13.046,90.105 10.174,104.331 10.174,119 C10.174,133.669 13.046,147.895 18.707,161.282 C24.178,174.217 32.012,185.835 41.992,195.814 C51.971,205.794 63.59,213.627 76.525,219.099 C89.91,224.762 104.134,227.633 118.806,227.633 C133.476,227.633 147.701,224.762 161.087,219.099 C170.509,215.114 179.228,209.869 187.128,203.46 C186.706,202.217 186.47,200.884 186.47,199.497 C186.47,192.728 191.958,187.24 198.726,187.24 C205.496,187.24 210.984,192.728 210.984,199.497 C210.984,206.267 205.496,211.754 198.726,211.754 C197.046,211.754 195.443,211.415 193.984,210.801 C173.517,227.583 147.339,237.659 118.806,237.659 C53.271,237.659 0.145,184.534 0.145,118.999 C0.145,53.464 53.271,0.338 118.806,0.338 C155.464,0.338 188.226,16.974 209.99,43.096 C210.896,44.003 211.459,45.256 211.459,46.639 C211.458,49.412 209.214,51.655 206.442,51.655 Z" id="Shape"></path>
            </g>
        </g>
    </g>
</svg>