<?xml version="1.0" encoding="UTF-8"?>
<svg width="123px" height="26px" viewBox="0 0 123 26" version="1.1" xmlns="http://www.w3.org/2000/svg" xmlns:xlink="http://www.w3.org/1999/xlink">
    <!-- Generator: Sketch 49.3 (51167) - http://www.bohemiancoding.com/sketch -->
    <title>Formidable_White</title>
    <desc>Created with Sketch.</desc>
    <defs></defs>
    <g id="Page-1" stroke="none" stroke-width="1" fill="none" fill-rule="evenodd">
        <g id="Artboard" transform="translate(-3.000000, -6.000000)" fill="#FFFFFF" fill-rule="nonzero">
            <g id="Formidable_White" transform="translate(3.000000, 6.000000)">
                <polygon id="Shape" points="29.6 8.71 35.58 8.71 35.58 5.72 26.45 5.72 26.45 19.89 29.63 19.89 29.63 14.59 34.86 14.59 34.86 11.71 29.6 11.71"></polygon>
                <path d="M40.54,9.65 C37.6294671,9.65552807 35.2744944,12.0194607 35.280019,14.9299936 C35.2855435,17.8405266 37.6494734,20.1955021 40.5600063,20.189981 C43.4705392,20.1844599 45.8255176,17.8205329 45.82,14.91 C45.8563433,13.5006358 45.311065,12.1384308 44.3122729,11.1434219 C43.3134807,10.1484131 41.9492162,9.6083083 40.54,9.65 Z M40.54,17.39 C39.9029279,17.3905058 39.2955033,17.1209178 38.8684826,16.6481448 C38.4414618,16.1753718 38.2348769,15.543735 38.3,14.91 C38.2195162,14.059189 38.6279901,13.2362299 39.3543061,12.7858721 C40.080622,12.3355143 40.999378,12.3355143 41.7256939,12.7858721 C42.4520099,13.2362299 42.8604838,14.059189 42.78,14.91 C42.8516945,15.5451493 42.6473968,16.180529 42.2189613,16.6548683 C41.7905258,17.1292076 41.1791456,17.3968999 40.54,17.39 Z" id="Shape"></path>
                <path d="M49.73,11.29 L49.73,10 L46.79,10 L46.79,19.93 L49.79,19.93 L49.79,15.55 C49.79,13.55 50.89,12.85 52.11,12.85 C52.4461651,12.8424013 52.7819963,12.8759844 53.11,12.95 L53.11,10 C52.8490475,9.93082303 52.5799514,9.89718602 52.31,9.9 C51.2573478,9.84268917 50.2611741,10.3793875 49.73,11.29 Z" id="Shape"></path>
                <path d="M65.72,9.65 C64.4864967,9.57344118 63.3081168,10.170283 62.64,11.21 C62.0513449,10.1578089 60.9013042,9.54758318 59.7,9.65 C58.5685514,9.63344967 57.5005063,10.1712066 56.84,11.09 L56.84,10 L53.94,10 L53.94,19.93 L56.94,19.93 L56.94,14.17 C56.9090154,13.7190183 57.0690511,13.275786 57.3809961,12.9486242 C57.6929411,12.6214623 58.1280547,12.4405137 58.58,12.45 C59.0271465,12.4203287 59.4643724,12.5907994 59.7734275,12.9153072 C60.0824825,13.239815 60.2314351,13.6848317 60.18,14.13 L60.18,19.89 L63.18,19.89 L63.18,14.15 C63.1544968,13.6988056 63.3197957,13.2576655 63.635521,12.9343323 C63.9512464,12.6109992 64.3883263,12.4352452 64.84,12.45 C65.2837692,12.4265029 65.7153577,12.5996771 66.0198072,12.9233956 C66.3242568,13.2471141 66.4706524,13.6885053 66.42,14.13 L66.42,19.89 L69.4,19.89 L69.4,13.45 C69.4954997,12.4371397 69.1429982,11.43321 68.4352532,10.7023863 C67.7275083,9.97156269 66.7354024,9.58703922 65.72,9.65 Z" id="Shape"></path>
                <rect id="Rectangle-path" x="70.97" y="9.95" width="3.04" height="9.93"></rect>
                <path d="M72.47,5.14 C71.4896122,5.15101629 70.702726,5.95276133 70.7100497,6.93318368 C70.7173733,7.91360602 71.5161489,8.70350634 72.4965919,8.69987543 C73.4770349,8.69624453 74.2699381,7.9004497 74.27,6.92 C74.27003,6.44442891 74.0797519,5.98862142 73.741599,5.65422575 C73.4034461,5.31983008 72.9455411,5.1346565 72.47,5.14 Z" id="Shape"></path>
                <path d="M85.44,5.42 L82.44,5.42 L82.44,10.74 C82.2,10.36 81.44,9.74 79.76,9.74 C78.4196459,9.74518395 77.141198,10.3048319 76.228129,11.2860969 C75.31506,12.2673619 74.8487899,13.5827428 74.94,14.92 C74.8571593,16.2760204 75.3387081,17.6059418 76.2705179,18.5945693 C77.2023278,19.5831968 78.5014539,20.1425281 79.86,20.14 C80.8842683,20.1942365 81.8727815,19.7557232 82.52,18.96 C82.5223675,19.2948329 82.5491048,19.6290493 82.6,19.96 L85.52,19.96 C85.52,19.74 85.44,19.08 85.44,18.18 L85.44,5.42 Z M80.24,17.42 C79.5960331,17.4246974 78.9811956,17.1520118 78.5524062,16.6715379 C78.1236168,16.1910641 77.9223598,15.5492867 78,14.91 C77.9195162,14.059189 78.3279901,13.2362299 79.0543061,12.7858721 C79.780622,12.3355143 80.699378,12.3355143 81.4256939,12.7858721 C82.1520099,13.2362299 82.5604838,14.059189 82.48,14.91 C82.5483801,15.5444412 82.3429283,16.1779311 81.9152082,16.6514784 C81.4874881,17.1250256 80.878105,17.3936744 80.24,17.39 L80.24,17.42 Z" id="Shape"></path>
                <path d="M95.44,13.49 C95.44,11.49 94.26,9.65 91.04,9.65 C88.12,9.65 86.8,11.53 86.68,12.95 L89.32,13.49 C89.3789069,12.6177749 90.1269832,11.9543025 91,12 C91.3390073,11.9335549 91.6903298,12.0127351 91.9680594,12.2181789 C92.2457891,12.4236228 92.4243213,12.7363898 92.46,13.08 C92.4603247,13.2674965 92.3832176,13.4468068 92.246905,13.5755465 C92.1105924,13.7042862 91.9271721,13.7710295 91.74,13.76 L89.4,14.12 C87.7778324,14.178341 86.4855613,15.4969849 86.46,17.12 C86.6468518,18.5231291 87.6649792,19.6732703 89.0350755,20.0289684 C90.4051718,20.3846664 91.8542011,19.8750371 92.7,18.74 C92.689059,19.1159702 92.7226255,19.4919151 92.8,19.86 L95.54,19.86 C95.4593359,19.350648 95.41921,18.8356991 95.42,18.32 L95.42,13.49 L95.44,13.49 Z M92.44,15.99 C92.5313812,16.5110434 92.376468,17.045045 92.0204321,17.4362933 C91.6643963,17.8275415 91.1473275,18.0319816 90.62,17.99 C90.3252928,18.0439695 90.0219142,17.9629566 89.7933445,17.7692535 C89.5647748,17.5755503 89.435099,17.289568 89.44,16.99 C89.4399512,16.6947633 89.5585851,16.4118999 89.7692212,16.2050252 C89.9798572,15.9981505 90.2648121,15.8846321 90.56,15.89 L92.44,15.59 L92.44,16 L92.44,15.99 Z" id="Shape"></path>
                <path d="M102.86,9.71 C101.776896,9.64835166 100.724524,10.0825472 100,10.89 L100,5.42 L97,5.42 L97,19.89 L99.94,19.89 L99.94,18.77 C100.579701,19.6697547 101.638007,20.1762294 102.74,20.11 C105.52,20.11 107.48,17.93 107.48,14.89 C107.48,11.85 105.74,9.71 102.86,9.71 Z M102.2,17.39 C101.560471,17.3930381 100.949597,17.1249769 100.518829,16.6522765 C100.088062,16.179576 99.8777371,15.5464979 99.94,14.91 C99.8593479,14.0555037 100.269691,13.2290677 100.99917,12.7768189 C101.728649,12.3245702 102.651351,12.3245702 103.38083,12.7768189 C104.110309,13.2290677 104.520652,14.0555037 104.44,14.91 C104.511695,15.5451493 104.307397,16.180529 103.878961,16.6548683 C103.450526,17.1292076 102.839146,17.3968999 102.2,17.39 Z" id="Shape"></path>
                <rect id="Rectangle-path" x="108.45" y="5.42" width="3.04" height="14.47"></rect>
                <path d="M122.38,14.75 C122.38,11.55 120.48,9.65 117.38,9.65 C116.011268,9.64842227 114.701729,10.2080226 113.756832,11.1982748 C112.811935,12.1885269 112.3143,13.5228448 112.38,14.89 C112.312889,16.2941721 112.832952,17.6629736 113.815539,18.6683227 C114.798125,19.6736719 116.154659,20.2249414 117.56,20.19 C119.667249,20.3608092 121.604897,19.0286765 122.2,17 L119.66,16.28 C119.376025,17.1251309 118.547638,17.6635825 117.66,17.58 C116.515206,17.6450481 115.520817,16.8002575 115.4,15.66 L122.32,15.66 C122.362641,15.3585849 122.382697,15.0544045 122.38,14.75 Z M115.46,13.75 C115.570219,12.7453139 116.451369,12.0051477 117.46,12.07 C117.951914,12.0081426 118.447338,12.1542499 118.826965,12.4731368 C119.206592,12.7920238 119.436021,13.2547922 119.46,13.75 L115.46,13.75 Z" id="Shape"></path>
                <polygon id="Shape" opacity="0.15" points="6 0 0.42 22.95 6 16.19"></polygon>
                <polygon id="Shape" points="6 0 18.83 12 6 16.19"></polygon>
                <polygon id="Shape" opacity="0.7" points="6 25.32 18.83 12 6 16.19"></polygon>
                <polygon id="Shape" opacity="0.45" points="0.42 22.95 6 16.19 6 25.32"></polygon>
            </g>
        </g>
    </g>
</svg>