<?xml version="1.0" encoding="UTF-8"?>
<svg width="376px" height="404px" viewBox="0 0 376 404" version="1.1" xmlns="http://www.w3.org/2000/svg" xmlns:xlink="http://www.w3.org/1999/xlink">
    <!-- Generator: Sketch 49.1 (51147) - http://www.bohemiancoding.com/sketch -->
    <title>graph</title>
    <desc>Created with Sketch.</desc>
    <defs></defs>
    <g id="Page-1" stroke="none" stroke-width="1" fill="none" fill-rule="evenodd">
        <g id="graph" transform="translate(0.000000, 2.000000)">
            <g id="Group" transform="translate(0.000000, 10.000000)">
                <g id="node" transform="translate(1.000000, 88.000000)" fill="#E33CAA" fill-rule="nonzero">
                    <circle id="Oval" cx="24" cy="24" r="24"></circle>
                </g>
                <g id="node" transform="translate(0.000000, 258.000000)" fill="#E33CAA" fill-rule="nonzero">
                    <circle id="Oval" cx="24" cy="24" r="24"></circle>
                </g>
                <g id="node" transform="translate(296.000000, 259.000000)" fill="#E33CAA" fill-rule="nonzero">
                    <circle id="Oval" cx="24" cy="24" r="24"></circle>
                </g>
                <g id="node" transform="translate(148.000000, 344.000000)" fill="#E33CAA" fill-rule="nonzero">
                    <circle id="Oval" cx="24" cy="24" r="24"></circle>
                </g>
                <g id="node" transform="translate(148.000000, 0.000000)" fill="#E33CAA" fill-rule="nonzero">
                    <circle id="Oval" cx="24" cy="24" r="24"></circle>
                </g>
                <g id="node" transform="translate(294.000000, 90.000000)" fill="#E33CAA" fill-rule="nonzero">
                    <circle id="Oval" cx="24" cy="24" r="24"></circle>
                </g>
                <path d="M23.5,279.5 L23.5,110.5" id="Line" stroke="#E33CAA" stroke-width="8" stroke-linecap="square"></path>
                <path d="M171.5,369.5 L317.5,283.5" id="Line-Copy" stroke="#E33CAA" stroke-width="8" stroke-linecap="square"></path>
                <path d="M319.5,282.5 L319.5,112.5" id="Line-Copy-4" stroke="#E33CAA" stroke-width="8" stroke-linecap="square"></path>
                <path d="M172.5,21.5 L321.5,116.5" id="Line-Copy-5" stroke="#E33CAA" stroke-width="8" stroke-linecap="square"></path>
                <path d="M25.5,110.5 L169.5,22.5" id="Line-Copy-3" stroke="#E33CAA" stroke-width="8" stroke-linecap="square"></path>
                <path d="M24.5,282.5 L169.5,365.5" id="Line-Copy-2" stroke="#E33CAA" stroke-width="8" stroke-linecap="square"></path>
                <path d="M32,282.5 L319.5,282.5" id="Line-Copy-6" stroke="#E33CAA" stroke-width="8" stroke-linecap="square"></path>
                <path d="M22,282 L175,24" id="Line-Copy-7" stroke="#E33CAA" stroke-width="8" stroke-linecap="square"></path>
                <path d="M322,283 L176,37" id="Line-Copy-8" stroke="#E33CAA" stroke-width="8" stroke-linecap="square"></path>
            </g>
            <path d="M199,15.3380282 C231.666667,-6.66197183 260.333333,-4.99530516 285,20.3380282" id="Path-3" stroke="#27CBC3" stroke-width="3"></path>
            <polygon id="Path-3-decoration-1" stroke="#27CBC3" stroke-width="3" points="199 15.3380282 206.282118 6.8168333 209.63372 11.7934549"></polygon>
            <path d="M71,252.338028 C103.666667,230.338028 132.333333,232.004695 157,257.338028" id="Path-3-Copy" stroke="#27CBC3" stroke-width="3" transform="translate(114.000000, 247.169014) scale(-1, 1) rotate(-180.000000) translate(-114.000000, -247.169014) "></path>
            <polygon id="Path-3-Copy-decoration-1" stroke="#27CBC3" stroke-width="3" transform="translate(76.316860, 244.077430) rotate(70.000000) translate(-76.316860, -244.077430) " points="71 248.338028 78.282118 239.816833 81.63372 244.793455"></polygon>
            <path d="M212.568848,28.8061523 L216.071777,39.1904297 L219.533203,28.8061523 L221.384277,28.8061523 L216.935058,41 L215.183594,41 L210.742676,28.8061523 L212.568848,28.8061523 Z M225.518066,31.9106445 C226.148929,31.9106445 226.760414,32.0586736 227.352539,32.3547363 C227.944664,32.650799 228.395669,33.0340146 228.705566,33.5043945 C229.004396,33.952639 229.203613,34.4755829 229.303223,35.0732422 C229.391765,35.4827494 229.436035,36.1357377 229.436035,37.0322266 L222.919922,37.0322266 C222.947591,37.9342493 223.160642,38.6577935 223.559082,39.2028809 C223.957521,39.7479682 224.57454,40.0205078 225.410156,40.0205078 C226.190433,40.0205078 226.812986,39.7631862 227.277832,39.2485352 C227.543458,38.9497055 227.731607,38.6038431 227.842285,38.2109375 L229.311523,38.2109375 C229.272786,38.5374365 229.144125,38.9012838 228.925537,39.3024902 C228.706949,39.7036967 228.462078,40.0315742 228.190918,40.2861328 C227.73714,40.7288434 227.175459,41.0276685 226.505859,41.1826172 C226.146157,41.2711593 225.739423,41.3154297 225.285644,41.3154297 C224.178868,41.3154297 223.240889,40.9128458 222.47168,40.107666 C221.70247,39.3024862 221.317871,38.1749747 221.317871,36.7250977 C221.317871,35.2973561 221.705237,34.1380253 222.47998,33.2470703 C223.254724,32.3561153 224.267409,31.9106445 225.518066,31.9106445 Z M227.90039,35.8452148 C227.839518,35.1977507 227.698406,34.6803405 227.477051,34.2929688 C227.067543,33.5735641 226.384119,33.2138672 225.426758,33.2138672 C224.740556,33.2138672 224.165041,33.4615047 223.700195,33.9567871 C223.235349,34.4520695 222.989095,35.0815392 222.961426,35.8452148 L227.90039,35.8452148 Z M231.312012,32.1098633 L232.731445,32.1098633 L232.731445,33.6455078 C232.847657,33.3466782 233.132647,32.9828309 233.586426,32.5539551 C234.040204,32.1250792 234.563148,31.9106445 235.155273,31.9106445 C235.182943,31.9106445 235.22998,31.9134114 235.296387,31.9189453 C235.362793,31.9244792 235.476236,31.9355468 235.636719,31.9521484 L235.636719,33.5292969 C235.548176,33.5126952 235.466553,33.5016276 235.391846,33.4960938 C235.317138,33.4905599 235.235515,33.487793 235.146973,33.487793 C234.394365,33.487793 233.816083,33.7298967 233.412109,34.2141113 C233.008136,34.698326 232.806152,35.2558562 232.806152,35.8867188 L232.806152,41 L231.312012,41 L231.312012,32.1098633 Z M237.230469,29.6279297 L238.741211,29.6279297 L238.741211,32.1098633 L240.160644,32.1098633 L240.160644,33.3300781 L238.741211,33.3300781 L238.741211,39.1323242 C238.741211,39.4422216 238.846353,39.6497391 239.05664,39.7548828 C239.172852,39.8157555 239.366535,39.8461914 239.637695,39.8461914 C239.709636,39.8461914 239.787109,39.844808 239.870117,39.842041 C239.953125,39.8392741 240.049967,39.8323568 240.160644,39.8212891 L240.160644,41 C239.989094,41.0498049 239.810629,41.0857746 239.625244,41.1079102 C239.439859,41.1300457 239.239259,41.1411133 239.023437,41.1411133 C238.326168,41.1411133 237.853028,40.9626483 237.604004,40.6057129 C237.354979,40.2487775 237.230469,39.7853219 237.230469,39.215332 L237.230469,33.3300781 L236.026855,33.3300781 L236.026855,32.1098633 L237.230469,32.1098633 L237.230469,29.6279297 Z M241.654785,32.1513672 L243.173828,32.1513672 L243.173828,41 L241.654785,41 L241.654785,32.1513672 Z M241.654785,28.8061523 L243.173828,28.8061523 L243.173828,30.4995117 L241.654785,30.4995117 L241.654785,28.8061523 Z M248.859863,31.8525391 C249.861496,31.8525391 250.676348,32.0960262 251.304443,32.5830078 C251.932539,33.0699894 252.310221,33.9083599 252.4375,35.0981445 L250.984863,35.0981445 C250.896321,34.5502902 250.694337,34.0951353 250.378906,33.732666 C250.063475,33.3701968 249.557132,33.1889648 248.859863,33.1889648 C247.908035,33.1889648 247.227378,33.6538039 246.817871,34.5834961 C246.552245,35.1866892 246.419433,35.9309852 246.419433,36.8164062 C246.419433,37.7073612 246.607583,38.457191 246.983887,39.065918 C247.360191,39.674645 247.952307,39.9790039 248.760254,39.9790039 C249.380049,39.9790039 249.871173,39.7894713 250.233642,39.4104004 C250.596112,39.0313295 250.846516,38.5125358 250.984863,37.8540039 L252.4375,37.8540039 C252.271483,39.0327207 251.856448,39.8946099 251.192383,40.4396973 C250.528317,40.9847846 249.678879,41.2573242 248.644043,41.2573242 C247.481928,41.2573242 246.555016,40.8326052 245.863281,39.9831543 C245.171546,39.1337034 244.825683,38.0725975 244.825683,36.7998047 C244.825683,35.23925 245.204749,34.0245812 245.96289,33.1557617 C246.721032,32.2869423 247.68668,31.8525391 248.859863,31.8525391 Z M257.633789,31.9106445 C258.264651,31.9106445 258.876136,32.0586736 259.468262,32.3547363 C260.060387,32.650799 260.511392,33.0340146 260.821289,33.5043945 C261.120119,33.952639 261.319335,34.4755829 261.418945,35.0732422 C261.507487,35.4827494 261.551758,36.1357377 261.551758,37.0322266 L255.035644,37.0322266 C255.063314,37.9342493 255.276365,38.6577935 255.674805,39.2028809 C256.073244,39.7479682 256.690263,40.0205078 257.525879,40.0205078 C258.306156,40.0205078 258.928708,39.7631862 259.393555,39.2485352 C259.659181,38.9497055 259.84733,38.6038431 259.958008,38.2109375 L261.427246,38.2109375 C261.388509,38.5374365 261.259848,38.9012838 261.04126,39.3024902 C260.822671,39.7036967 260.577801,40.0315742 260.30664,40.2861328 C259.852862,40.7288434 259.291182,41.0276685 258.621582,41.1826172 C258.26188,41.2711593 257.855145,41.3154297 257.401367,41.3154297 C256.294591,41.3154297 255.356612,40.9128458 254.587402,40.107666 C253.818193,39.3024862 253.433594,38.1749747 253.433594,36.7250977 C253.433594,35.2973561 253.82096,34.1380253 254.595703,33.2470703 C255.370446,32.3561153 256.383132,31.9106445 257.633789,31.9106445 Z M260.016113,35.8452148 C259.95524,35.1977507 259.814129,34.6803405 259.592773,34.2929688 C259.183266,33.5735641 258.499842,33.2138672 257.54248,33.2138672 C256.856279,33.2138672 256.280764,33.4615047 255.815918,33.9567871 C255.351072,34.4520695 255.104818,35.0815392 255.077148,35.8452148 L260.016113,35.8452148 Z M263.70166,42.7348633 C264.083498,42.6684567 264.351887,42.4000675 264.506836,41.9296875 C264.589844,41.6806628 264.631348,41.4399426 264.631348,41.2075195 C264.631348,41.1687824 264.629964,41.1341961 264.627197,41.1037598 C264.62443,41.0733234 264.617513,41.0387372 264.606445,41 L263.70166,41 L263.70166,39.1904297 L265.478027,39.1904297 L265.478027,40.8671875 C265.478027,41.5257194 265.345216,42.1040014 265.07959,42.6020508 C264.813963,43.1001001 264.354658,43.407226 263.70166,43.5234375 L263.70166,42.7348633 Z M273.031738,28.8061523 L274.982422,28.8061523 L281.141601,38.684082 L281.141601,28.8061523 L282.710449,28.8061523 L282.710449,41 L280.859375,41 L274.608887,31.1303711 L274.608887,41 L273.031738,41 L273.031738,28.8061523 Z M288.637207,40.0371094 C289.627772,40.0371094 290.307046,39.6621945 290.675049,38.9123535 C291.043052,38.1625125 291.227051,37.3282924 291.227051,36.409668 C291.227051,35.5795857 291.094239,34.9044622 290.828613,34.3842773 C290.408038,33.5652628 289.68311,33.1557617 288.653808,33.1557617 C287.740718,33.1557617 287.076662,33.504391 286.661621,34.2016602 C286.24658,34.8989293 286.039062,35.7400667 286.039062,36.7250977 C286.039062,37.6713915 286.24658,38.4599578 286.661621,39.0908203 C287.076662,39.7216828 287.735184,40.0371094 288.637207,40.0371094 Z M288.695312,31.8525391 C289.840826,31.8525391 290.809241,32.2343712 291.600586,32.9980469 C292.391931,33.7617226 292.787598,34.8850837 292.787598,36.3681641 C292.787598,37.8014395 292.438968,38.9856724 291.741699,39.9208984 C291.04443,40.8561245 289.962572,41.3237305 288.496094,41.3237305 C287.273106,41.3237305 286.301924,40.910079 285.582519,40.0827637 C284.863115,39.2554483 284.503418,38.1445382 284.503418,36.75 C284.503418,35.2558519 284.882483,34.0660852 285.640625,33.1806641 C286.398767,32.295243 287.416986,31.8525391 288.695312,31.8525391 Z M295.510254,36.6586914 C295.510254,37.6105191 295.712237,38.4073861 296.116211,39.0493164 C296.520184,39.6912467 297.167639,40.012207 298.058594,40.012207 C298.750329,40.012207 299.318927,39.7147653 299.764404,39.119873 C300.209882,38.5249807 300.432617,37.6713923 300.432617,36.559082 C300.432617,35.435704 300.202964,34.6042507 299.743652,34.0646973 C299.28434,33.5251438 298.717126,33.2553711 298.041992,33.2553711 C297.289384,33.2553711 296.679283,33.5431286 296.21167,34.1186523 C295.744057,34.6941761 295.510254,35.5408473 295.510254,36.6586914 Z M297.759765,31.9521484 C298.440433,31.9521484 299.010414,32.0960272 299.469726,32.3837891 C299.735353,32.5498055 300.036945,32.84033 300.374512,33.2553711 L300.374512,28.7646484 L301.810547,28.7646484 L301.810547,41 L300.46582,41 L300.46582,39.7631836 C300.117186,40.3110379 299.704918,40.7067045 299.229004,40.9501953 C298.75309,41.1936861 298.208011,41.3154297 297.59375,41.3154297 C296.603185,41.3154297 295.745446,40.8990113 295.020508,40.0661621 C294.295569,39.2333129 293.933105,38.1251697 293.933105,36.7416992 C293.933105,35.4467709 294.26375,34.3247932 294.925049,33.3757324 C295.586348,32.4266717 296.531244,31.9521484 297.759765,31.9521484 Z M307.720703,31.9106445 C308.351565,31.9106445 308.96305,32.0586736 309.555176,32.3547363 C310.147301,32.650799 310.598306,33.0340146 310.908203,33.5043945 C311.207033,33.952639 311.406249,34.4755829 311.505859,35.0732422 C311.594401,35.4827494 311.638672,36.1357377 311.638672,37.0322266 L305.122558,37.0322266 C305.150228,37.9342493 305.363279,38.6577935 305.761719,39.2028809 C306.160158,39.7479682 306.777177,40.0205078 307.612793,40.0205078 C308.39307,40.0205078 309.015623,39.7631862 309.480469,39.2485352 C309.746095,38.9497055 309.934244,38.6038431 310.044922,38.2109375 L311.51416,38.2109375 C311.475423,38.5374365 311.346762,38.9012838 311.128174,39.3024902 C310.909585,39.7036967 310.664715,40.0315742 310.393555,40.2861328 C309.939776,40.7288434 309.378096,41.0276685 308.708496,41.1826172 C308.348794,41.2711593 307.942059,41.3154297 307.488281,41.3154297 C306.381505,41.3154297 305.443526,40.9128458 304.674316,40.107666 C303.905107,39.3024862 303.520508,38.1749747 303.520508,36.7250977 C303.520508,35.2973561 303.907874,34.1380253 304.682617,33.2470703 C305.45736,32.3561153 306.470046,31.9106445 307.720703,31.9106445 Z M310.103027,35.8452148 C310.042154,35.1977507 309.901043,34.6803405 309.679687,34.2929688 C309.27018,33.5735641 308.586756,33.2138672 307.629394,33.2138672 C306.943193,33.2138672 306.367678,33.4615047 305.902832,33.9567871 C305.437986,34.4520695 305.191732,35.0815392 305.164062,35.8452148 L310.103027,35.8452148 Z M321.724121,40.0371094 C322.714686,40.0371094 323.39396,39.6621945 323.761963,38.9123535 C324.129966,38.1625125 324.313965,37.3282924 324.313965,36.409668 C324.313965,35.5795857 324.181154,34.9044622 323.915527,34.3842773 C323.494952,33.5652628 322.770025,33.1557617 321.740723,33.1557617 C320.827632,33.1557617 320.163576,33.504391 319.748535,34.2016602 C319.333494,34.8989293 319.125976,35.7400667 319.125976,36.7250977 C319.125976,37.6713915 319.333494,38.4599578 319.748535,39.0908203 C320.163576,39.7216828 320.822098,40.0371094 321.724121,40.0371094 Z M321.782226,31.8525391 C322.92774,31.8525391 323.896155,32.2343712 324.6875,32.9980469 C325.478845,33.7617226 325.874512,34.8850837 325.874512,36.3681641 C325.874512,37.8014395 325.525882,38.9856724 324.828613,39.9208984 C324.131344,40.8561245 323.049486,41.3237305 321.583008,41.3237305 C320.36002,41.3237305 319.388838,40.910079 318.669433,40.0827637 C317.950029,39.2554483 317.590332,38.1445382 317.590332,36.75 C317.590332,35.2558519 317.969397,34.0660852 318.727539,33.1806641 C319.485681,32.295243 320.5039,31.8525391 321.782226,31.8525391 Z M327.692383,32.1098633 L329.111816,32.1098633 L329.111816,33.6455078 C329.228028,33.3466782 329.513018,32.9828309 329.966797,32.5539551 C330.420575,32.1250792 330.943519,31.9106445 331.535644,31.9106445 C331.563314,31.9106445 331.610351,31.9134114 331.676758,31.9189453 C331.743164,31.9244792 331.856607,31.9355468 332.01709,31.9521484 L332.01709,33.5292969 C331.928548,33.5126952 331.846924,33.5016276 331.772217,33.4960938 C331.697509,33.4905599 331.615886,33.487793 331.527344,33.487793 C330.774736,33.487793 330.196454,33.7298967 329.79248,34.2141113 C329.388507,34.698326 329.186523,35.2558562 329.186523,35.8867188 L329.186523,41 L327.692383,41 L327.692383,32.1098633 Z M338.39209,28.8061523 L343.878906,28.8061523 C344.963547,28.8061523 345.837887,29.1118947 346.501953,29.7233887 C347.166019,30.3348826 347.498047,31.1940049 347.498047,32.3007812 C347.498047,33.2526089 347.201988,34.0812953 346.609863,34.7868652 C346.017738,35.4924352 345.107428,35.8452148 343.878906,35.8452148 L340.043945,35.8452148 L340.043945,41 L338.39209,41 L338.39209,28.8061523 Z M345.82959,32.309082 C345.82959,31.4125932 345.497562,30.8038753 344.833496,30.4829102 C344.46826,30.3113598 343.967451,30.2255859 343.331055,30.2255859 L340.043945,30.2255859 L340.043945,34.4506836 L343.331055,34.4506836 C344.072595,34.4506836 344.674395,34.2929703 345.136474,33.9775391 C345.598554,33.6621078 345.82959,33.105961 345.82959,32.309082 Z M352.901855,40.0371094 C353.89242,40.0371094 354.571694,39.6621945 354.939697,38.9123535 C355.3077,38.1625125 355.491699,37.3282924 355.491699,36.409668 C355.491699,35.5795857 355.358888,34.9044622 355.093262,34.3842773 C354.672687,33.5652628 353.947759,33.1557617 352.918457,33.1557617 C352.005366,33.1557617 351.341311,33.504391 350.926269,34.2016602 C350.511228,34.8989293 350.303711,35.7400667 350.303711,36.7250977 C350.303711,37.6713915 350.511228,38.4599578 350.926269,39.0908203 C351.341311,39.7216828 351.999833,40.0371094 352.901855,40.0371094 Z M352.959961,31.8525391 C354.105474,31.8525391 355.073889,32.2343712 355.865234,32.9980469 C356.656579,33.7617226 357.052246,34.8850837 357.052246,36.3681641 C357.052246,37.8014395 356.703617,38.9856724 356.006348,39.9208984 C355.309078,40.8561245 354.227221,41.3237305 352.760742,41.3237305 C351.537754,41.3237305 350.566572,40.910079 349.847168,40.0827637 C349.127763,39.2554483 348.768066,38.1445382 348.768066,36.75 C348.768066,35.2558519 349.147131,34.0660852 349.905273,33.1806641 C350.663415,32.295243 351.681634,31.8525391 352.959961,31.8525391 Z M358.828613,32.1513672 L360.347656,32.1513672 L360.347656,41 L358.828613,41 L358.828613,32.1513672 Z M358.828613,28.8061523 L360.347656,28.8061523 L360.347656,30.4995117 L358.828613,30.4995117 L358.828613,28.8061523 Z M362.605469,32.1098633 L364.024902,32.1098633 L364.024902,33.371582 C364.445477,32.8513971 364.890948,32.4778657 365.361328,32.2509766 C365.831708,32.0240874 366.354652,31.9106445 366.930176,31.9106445 C368.191901,31.9106445 369.044106,32.3505815 369.486816,33.2304688 C369.730307,33.7119165 369.852051,34.4008744 369.852051,35.2973633 L369.852051,41 L368.333008,41 L368.333008,35.3969727 C368.333008,34.8546522 368.252768,34.4174821 368.092285,34.0854492 C367.826659,33.532061 367.345218,33.2553711 366.647949,33.2553711 C366.293781,33.2553711 366.003256,33.2913408 365.776367,33.3632812 C365.36686,33.4850267 365.007163,33.7285138 364.697265,34.09375 C364.448241,34.3870457 364.286377,34.6900212 364.21167,35.0026855 C364.136962,35.3153499 364.099609,35.7622041 364.099609,36.3432617 L364.099609,41 L362.605469,41 L362.605469,32.1098633 Z M372.358887,29.6279297 L373.869629,29.6279297 L373.869629,32.1098633 L375.289062,32.1098633 L375.289062,33.3300781 L373.869629,33.3300781 L373.869629,39.1323242 C373.869629,39.4422216 373.974771,39.6497391 374.185058,39.7548828 C374.30127,39.8157555 374.494953,39.8461914 374.766113,39.8461914 C374.838054,39.8461914 374.915527,39.844808 374.998535,39.842041 C375.081543,39.8392741 375.178385,39.8323568 375.289062,39.8212891 L375.289062,41 C375.117512,41.0498049 374.939047,41.0857746 374.753662,41.1079102 C374.568277,41.1300457 374.367677,41.1411133 374.151855,41.1411133 C373.454586,41.1411133 372.981446,40.9626483 372.732422,40.6057129 C372.483397,40.2487775 372.358887,39.7853219 372.358887,39.215332 L372.358887,33.3300781 L371.155273,33.3300781 L371.155273,32.1098633 L372.358887,32.1098633 L372.358887,29.6279297 Z" id="Vertice,-Node-or-Point" fill="#27CBC3"></path>
            <path d="M101.187989,214.806152 L110.078125,214.806152 L110.078125,216.300293 L102.79834,216.300293 L102.79834,220.002441 L109.530274,220.002441 L109.530274,221.413574 L102.79834,221.413574 L102.79834,225.547363 L110.202637,225.547363 L110.202637,227 L101.187989,227 L101.187989,214.806152 Z M113.116211,222.658691 C113.116211,223.610519 113.318195,224.407386 113.722168,225.049316 C114.126142,225.691247 114.773596,226.012207 115.664551,226.012207 C116.356286,226.012207 116.924884,225.714765 117.370362,225.119873 C117.815839,224.524981 118.038575,223.671392 118.038575,222.559082 C118.038575,221.435704 117.808922,220.604251 117.34961,220.064697 C116.890298,219.525144 116.323083,219.255371 115.64795,219.255371 C114.895342,219.255371 114.28524,219.543129 113.817627,220.118652 C113.350014,220.694176 113.116211,221.540847 113.116211,222.658691 Z M115.365723,217.952148 C116.046391,217.952148 116.616372,218.096027 117.075684,218.383789 C117.34131,218.549806 117.642902,218.84033 117.980469,219.255371 L117.980469,214.764648 L119.416504,214.764648 L119.416504,227 L118.071778,227 L118.071778,225.763184 C117.723143,226.311038 117.310875,226.706705 116.834961,226.950195 C116.359048,227.193686 115.813968,227.31543 115.199707,227.31543 C114.209143,227.31543 113.351404,226.899011 112.626465,226.066162 C111.901527,225.233313 111.539063,224.12517 111.539063,222.741699 C111.539063,221.446771 111.869707,220.324793 112.531006,219.375732 C113.192305,218.426672 114.137201,217.952148 115.365723,217.952148 Z M124.762207,217.952148 C125.459477,217.952148 126.068194,218.123696 126.588379,218.466797 C126.870607,218.660483 127.158365,218.942706 127.451661,219.313477 L127.451661,218.192871 L128.82959,218.192871 L128.82959,226.277832 C128.82959,227.406744 128.663576,228.297686 128.331543,228.950684 C127.711749,230.15707 126.54135,230.760254 124.820313,230.760254 C123.862951,230.760254 123.057784,230.545819 122.404786,230.116943 C121.751788,229.688068 121.386557,229.017094 121.309082,228.104004 L122.828125,228.104004 C122.900066,228.502443 123.043945,228.809569 123.259766,229.025391 C123.597333,229.357424 124.128578,229.523438 124.853516,229.523438 C125.99903,229.523438 126.748859,229.11947 127.103028,228.311523 C127.313315,227.83561 127.410157,226.986171 127.393555,225.763184 C127.094726,226.216962 126.735029,226.554524 126.314454,226.775879 C125.893879,226.997234 125.337732,227.10791 124.645997,227.10791 C123.683101,227.10791 122.84058,226.766198 122.118409,226.082764 C121.396237,225.399329 121.035157,224.269051 121.035157,222.691895 C121.035157,221.20328 121.399004,220.041183 122.126709,219.205566 C122.854415,218.36995 123.732905,217.952148 124.762207,217.952148 Z M127.451661,222.517578 C127.451661,221.416336 127.224775,220.6001 126.770997,220.068848 C126.317218,219.537595 125.738936,219.271973 125.036133,219.271973 C123.984696,219.271973 123.265302,219.764481 122.87793,220.749512 C122.673176,221.27523 122.570801,221.964188 122.570801,222.816406 C122.570801,223.818039 122.774168,224.58032 123.180909,225.103271 C123.587649,225.626223 124.134112,225.887695 124.820313,225.887695 C125.893886,225.887695 126.64925,225.403488 127.086426,224.435059 C127.329917,223.887204 127.451661,223.248051 127.451661,222.517578 Z M134.78125,217.910645 C135.412113,217.910645 136.023598,218.058674 136.615723,218.354736 C137.207848,218.650799 137.658853,219.034015 137.96875,219.504395 C138.26758,219.952639 138.466797,220.475583 138.566407,221.073242 C138.654949,221.482749 138.699219,222.135738 138.699219,223.032227 L132.183106,223.032227 C132.210775,223.934249 132.423827,224.657793 132.822266,225.202881 C133.220706,225.747968 133.837724,226.020508 134.67334,226.020508 C135.453618,226.020508 136.07617,225.763186 136.541016,225.248535 C136.806642,224.949706 136.994792,224.603843 137.105469,224.210938 L138.574707,224.210938 C138.53597,224.537437 138.407309,224.901284 138.188721,225.30249 C137.970133,225.703697 137.725262,226.031574 137.454102,226.286133 C137.000324,226.728843 136.438643,227.027668 135.769043,227.182617 C135.409341,227.271159 135.002607,227.31543 134.548829,227.31543 C133.442052,227.31543 132.504073,226.912846 131.734864,226.107666 C130.965654,225.302486 130.581055,224.174975 130.581055,222.725098 C130.581055,221.297356 130.968421,220.138025 131.743165,219.24707 C132.517908,218.356115 133.530593,217.910645 134.78125,217.910645 Z M137.163575,221.845215 C137.102702,221.197751 136.96159,220.68034 136.740235,220.292969 C136.330728,219.573564 135.647303,219.213867 134.689942,219.213867 C134.00374,219.213867 133.428225,219.461505 132.963379,219.956787 C132.498533,220.45207 132.252279,221.081539 132.22461,221.845215 L137.163575,221.845215 Z M140.849122,228.734863 C141.230959,228.668457 141.499349,228.400067 141.654297,227.929688 C141.737306,227.680663 141.778809,227.439943 141.778809,227.20752 C141.778809,227.168782 141.777426,227.134196 141.774659,227.10376 C141.771892,227.073323 141.764974,227.038737 141.753907,227 L140.849122,227 L140.849122,225.19043 L142.625489,225.19043 L142.625489,226.867188 C142.625489,227.525719 142.492678,228.104001 142.227051,228.602051 C141.961425,229.1001 141.50212,229.407226 140.849122,229.523438 L140.849122,228.734863 Z M155.508301,222.00293 L153.657227,216.615723 L151.689942,222.00293 L155.508301,222.00293 Z M152.793946,214.806152 L154.661622,214.806152 L159.085938,227 L157.276368,227 L156.039551,223.347656 L151.216797,223.347656 L149.896973,227 L148.203614,227 L152.793946,214.806152 Z M160.430665,218.109863 L161.850098,218.109863 L161.850098,219.645508 C161.96631,219.346678 162.2513,218.982831 162.705079,218.553955 C163.158857,218.125079 163.681801,217.910645 164.273926,217.910645 C164.301596,217.910645 164.348633,217.913411 164.41504,217.918945 C164.481446,217.924479 164.594889,217.935547 164.755372,217.952148 L164.755372,219.529297 C164.666829,219.512695 164.585206,219.501628 164.510498,219.496094 C164.435791,219.49056 164.354168,219.487793 164.265625,219.487793 C163.513018,219.487793 162.934736,219.729897 162.530762,220.214111 C162.126789,220.698326 161.924805,221.255856 161.924805,221.886719 L161.924805,227 L160.430665,227 L160.430665,218.109863 Z M169.478516,217.852539 C170.480149,217.852539 171.295001,218.096026 171.923096,218.583008 C172.551192,219.069989 172.928873,219.90836 173.056153,221.098145 L171.603516,221.098145 C171.514974,220.55029 171.31299,220.095135 170.997559,219.732666 C170.682128,219.370197 170.175785,219.188965 169.478516,219.188965 C168.526688,219.188965 167.846031,219.653804 167.436524,220.583496 C167.170898,221.186689 167.038086,221.930985 167.038086,222.816406 C167.038086,223.707361 167.226236,224.457191 167.60254,225.065918 C167.978843,225.674645 168.57096,225.979004 169.378907,225.979004 C169.998701,225.979004 170.489826,225.789471 170.852295,225.4104 C171.214765,225.031329 171.465169,224.512536 171.603516,223.854004 L173.056153,223.854004 C172.890136,225.032721 172.475101,225.89461 171.811036,226.439697 C171.14697,226.984785 170.297532,227.257324 169.262696,227.257324 C168.100581,227.257324 167.173669,226.832605 166.481934,225.983154 C165.790199,225.133703 165.444336,224.072598 165.444336,222.799805 C165.444336,221.23925 165.823402,220.024581 166.581543,219.155762 C167.339685,218.286942 168.305333,217.852539 169.478516,217.852539 Z M182.80127,226.037109 C183.791835,226.037109 184.471109,225.662195 184.839112,224.912354 C185.207115,224.162513 185.391114,223.328292 185.391114,222.409668 C185.391114,221.579586 185.258303,220.904462 184.992676,220.384277 C184.572101,219.565263 183.847174,219.155762 182.817872,219.155762 C181.904781,219.155762 181.240725,219.504391 180.825684,220.20166 C180.410643,220.898929 180.203125,221.740067 180.203125,222.725098 C180.203125,223.671391 180.410643,224.459958 180.825684,225.09082 C181.240725,225.721683 181.899247,226.037109 182.80127,226.037109 Z M182.859375,217.852539 C184.004889,217.852539 184.973304,218.234371 185.764649,218.998047 C186.555994,219.761723 186.951661,220.885084 186.951661,222.368164 C186.951661,223.801439 186.603031,224.985672 185.905762,225.920898 C185.208493,226.856124 184.126635,227.32373 182.660157,227.32373 C181.437169,227.32373 180.465987,226.910079 179.746582,226.082764 C179.027178,225.255448 178.667481,224.144538 178.667481,222.75 C178.667481,221.255852 179.046546,220.066085 179.804688,219.180664 C180.56283,218.295243 181.581049,217.852539 182.859375,217.852539 Z M188.769532,218.109863 L190.188965,218.109863 L190.188965,219.645508 C190.305177,219.346678 190.590167,218.982831 191.043946,218.553955 C191.497724,218.125079 192.020668,217.910645 192.612793,217.910645 C192.640463,217.910645 192.6875,217.913411 192.753907,217.918945 C192.820313,217.924479 192.933756,217.935547 193.094239,217.952148 L193.094239,219.529297 C193.005697,219.512695 192.924073,219.501628 192.849366,219.496094 C192.774658,219.49056 192.693035,219.487793 192.604493,219.487793 C191.851885,219.487793 191.273603,219.729897 190.869629,220.214111 C190.465656,220.698326 190.263672,221.255856 190.263672,221.886719 L190.263672,227 L188.769532,227 L188.769532,218.109863 Z M199.311524,214.806152 L200.963379,214.806152 L200.963379,225.547363 L207.139161,225.547363 L207.139161,227 L199.311524,227 L199.311524,214.806152 Z M208.566895,218.151367 L210.085938,218.151367 L210.085938,227 L208.566895,227 L208.566895,218.151367 Z M208.566895,214.806152 L210.085938,214.806152 L210.085938,216.499512 L208.566895,216.499512 L208.566895,214.806152 Z M212.34375,218.109863 L213.763184,218.109863 L213.763184,219.371582 C214.183759,218.851397 214.62923,218.477866 215.09961,218.250977 C215.56999,218.024087 216.092934,217.910645 216.668457,217.910645 C217.930183,217.910645 218.782388,218.350582 219.225098,219.230469 C219.468589,219.711916 219.590332,220.400874 219.590332,221.297363 L219.590332,227 L218.07129,227 L218.07129,221.396973 C218.07129,220.854652 217.991049,220.417482 217.830567,220.085449 C217.564941,219.532061 217.0835,219.255371 216.386231,219.255371 C216.032062,219.255371 215.741538,219.291341 215.514649,219.363281 C215.105142,219.485027 214.745445,219.728514 214.435547,220.09375 C214.186523,220.387046 214.024659,220.690021 213.949952,221.002686 C213.875244,221.31535 213.837891,221.762204 213.837891,222.343262 L213.837891,227 L212.34375,227 L212.34375,218.109863 Z M225.500489,217.910645 C226.131351,217.910645 226.742836,218.058674 227.334961,218.354736 C227.927087,218.650799 228.378091,219.034015 228.687989,219.504395 C228.986818,219.952639 229.186035,220.475583 229.285645,221.073242 C229.374187,221.482749 229.418457,222.135738 229.418457,223.032227 L222.902344,223.032227 C222.930014,223.934249 223.143065,224.657793 223.541504,225.202881 C223.939944,225.747968 224.556962,226.020508 225.392579,226.020508 C226.172856,226.020508 226.795408,225.763186 227.260254,225.248535 C227.525881,224.949706 227.71403,224.603843 227.824707,224.210938 L229.293946,224.210938 C229.255209,224.537437 229.126548,224.901284 228.907959,225.30249 C228.689371,225.703697 228.4445,226.031574 228.17334,226.286133 C227.719562,226.728843 227.157881,227.027668 226.488282,227.182617 C226.128579,227.271159 225.721845,227.31543 225.268067,227.31543 C224.16129,227.31543 223.223312,226.912846 222.454102,226.107666 C221.684892,225.302486 221.300293,224.174975 221.300293,222.725098 C221.300293,221.297356 221.687659,220.138025 222.462403,219.24707 C223.237146,218.356115 224.249831,217.910645 225.500489,217.910645 Z M227.882813,221.845215 C227.82194,221.197751 227.680828,220.68034 227.459473,220.292969 C227.049966,219.573564 226.366542,219.213867 225.40918,219.213867 C224.722979,219.213867 224.147464,219.461505 223.682618,219.956787 C223.217772,220.45207 222.971518,221.081539 222.943848,221.845215 L227.882813,221.845215 Z" id="Edge,-Arc-or-Line" fill="#27CBC3"></path>
        </g>
    </g>
</svg>